# xmcd
#
# Track frame offsets:
#	150
#	12696
#	26952
#	45373
#	63244
#	78651
#	95774
#	107533
#	132012
#	148306
#	164462
#	182772
#	195684
#	210170
#
# Disc length: 3034 seconds
#
# Revision: 1
# Processed by: cddbd v1.5.2PL0 Copyright (c) Steve Scherf et al.
# Submitted via: audiograbber 1.83.01
#
DISCID=c40bd80e
DTITLE=Various Artist - CDX Volume 560 (December 3, 2012)
DYEAR=2012
DGENRE=Country
TTITLE0=Easton Corbin - All Over The Road 
TTITLE1=Henningsens - American Beautiful
TTITLE2=Carrie Underwood - Two Black Cadillacs
TTITLE3=Austin Webb - It's All Good
TTITLE4=Taylor Made - That's What Life Is 
TTITLE5=Ray Scott - Those Jeans 
TTITLE6=Smokey River Boys - All Pure Country
TTITLE7=Verlan Brock - America's Dream 
TTITLE8=Kelly Parkes - As Good As Me 
TTITLE9=Andrew Peterson - Dancing In The Minefields
TTITLE10=Debbie Cochran - Honky Tonk Yourself Right Out Of Heaven
TTITLE11=Danny Griego - I Wear My Own Kind Of Hat
TTITLE12=Cold Beer and Broads - Get Me Home By Christmas Eve
TTITLE13=Doug Wayne - That Star Still Shines 
EXTD=
EXTT0=
EXTT1=
EXTT2=
EXTT3=
EXTT4=
EXTT5=
EXTT6=
EXTT7=
EXTT8=
EXTT9=
EXTT10=
EXTT11=
EXTT12=
EXTT13=
PLAYORDER=
